#!OML:ASF X:\für Bonn\!DataBase\2005_08_12_Daniel\c3d\Daniel.ASF
:FULLY-SPECIFIED
:DEGREES
1
root 1.82713 17.457 16.9775 -730.221 7.75689 -1.05653
lowerback 10.3144 -3.06978 2.78844
upperback 2.37632 -3.84793 -1.79915
thorax -3.60335 -1.93901 -2.92202
lowerneck -0.753465 1.54379 -0.514021
upperneck 8.07976 2.39803 -4.22813
head 2.74989 1.0497 -1.20646
rclavicle 4.40929e-014 -6.36111e-015
rhumerus -44.6151 11.7314 -97.6034
rradius 52.9995
rwrist 8.94448
rhand -26.1053 21.5972
rfingers 7.12502
rthumb 0.444038 -8.38204
lclavicle 4.40929e-014 -6.36111e-015
lhumerus -41.805 38.5622 65.9126
lradius 24.5569
lwrist -27.3693
lhand -11.3358 -7.16787
lfingers 7.12502
lthumb 14.697 22.2912
rfemur -1.18018 13.0036 21.1651
rtibia 24.4501
rfoot -15.9372 -13.232
rtoes -13.3195
lfemur -3.90949 -5.04594 -15.0614
ltibia 43.6653
lfoot -22.4162 -2.18189
ltoes -12.4832
2
root 1.81774 17.4681 17.0257 -730.153 7.85738 -1.08036
lowerback 10.2652 -3.0611 2.80096
upperback 2.3319 -3.83553 -1.77744
thorax -3.62094 -1.93376 -2.90928
lowerneck -0.659737 1.51345 -0.456039
upperneck 7.92862 2.34694 -4.22098
head 2.68141 1.03005 -1.21525
rclavicle 5.45167e-014 -9.54166e-015
rhumerus -45.0103 12.3663 -97.6791
rradius 55.1797
rwrist 9.08305
rhand -26.5112 22.3068
rfingers 7.12502
rthumb 0.0519981 -7.67293
lclavicle 5.45167e-014 -9.54166e-015
lhumerus -43.0792 40.7583 63.895
lradius 23.4096
lwrist -30.0989
lhand -11.1644 -7.1676
lfingers 7.12502
lthumb 14.8622 22.2793
rfemur -0.813346 13.3623 21.3667
rtibia 24.0937
rfoot -16.1337 -13.7045
rtoes -13.2644
lfemur -4.07972 -5.2593 -15.062
ltibia 42.9022
lfoot -22.3576 -1.98478
ltoes -12.0411
3
root 1.80962 17.4772 17.0738 -730.095 7.95022 -1.09052
lowerback 10.2029 -3.04176 2.79743
upperback 2.29238 -3.81116 -1.76019
thorax -3.62449 -1.92222 -2.89465
lowerneck -0.53861 1.48187 -0.381863
upperneck 7.80223 2.29532 -4.22591
head 2.61688 1.01007 -1.23094
rclavicle 1.94126e-014 1.70955e-014
rhumerus -45.3931 12.9856 -97.7352
rradius 57.4367
rwrist 9.14753
rhand -26.9153 23.0045
rfingers 7.12502
rthumb -0.338295 -6.97494
lclavicle 1.94126e-014 1.70955e-014
lhumerus -44.6673 43.1173 61.479
lradius 22.2598
lwrist -33.1313
lhand -11.0213 -7.16985
lfingers 7.12502
lthumb 15 22.2669
rfemur -0.442913 13.7496 21.5639
rtibia 23.76
rfoot -16.3395 -14.1901
rtoes -13.295
lfemur -4.21807 -5.55655 -15.1043
ltibia 42.1082
lfoot -22.245 -1.94094
ltoes -11.5232
4
root 1.80249 17.4856 17.1211 -730.031 8.05811 -1.07345
lowerback 10.1326 -3.03339 2.76742
upperback 2.25348 -3.8048 -1.75441
thorax -3.62345 -1.91936 -2.87494
lowerneck -0.398225 1.45498 -0.305789
upperneck 7.64022 2.24866 -4.23478
head 2.53733 0.993217 -1.24792
rclavicle -1.35111e-014 2.38542e-015
rhumerus -45.7341 13.6777 -97.793
rradius 59.7222
rwrist 9.0613
rhand -27.3173 23.7018
rfingers 7.12502
rthumb -0.726574 -6.2767
lclavicle -1.35111e-014 2.38542e-015
lhumerus -46.614 45.4977 58.6718
lradius 21.1892
lwrist -36.2503
lhand -10.8607 -7.22687
lfingers 7.12502
lthumb 15.1547 22.1982
rfemur -0.0894213 14.1318 21.7309
rtibia 23.4564
rfoot -16.5605 -14.6902
rtoes -13.2892
lfemur -4.34853 -5.88105 -15.1855
ltibia 41.2991
lfoot -22.058 -1.93979
ltoes -11.0577
5
root 1.79723 17.493 17.1678 -729.949 8.16903 -1.04458
lowerback 10.0292 -3.01882 2.7152
upperback 2.21778 -3.79288 -1.73913
thorax -3.59828 -1.91316 -2.83533
lowerneck -0.270447 1.4248 -0.255929
upperneck 7.51113 2.19889 -4.22506
head 2.47046 0.973821 -1.25443
rclavicle 2.29286e-014 2.62396e-014
rhumerus -46.0311 14.3854 -97.819
rradius 62.0384
rwrist 8.92537
rhand -27.7439 24.3838
rfingers 7.12502
rthumb -1.13853 -5.59288
lclavicle 2.29286e-014 2.62396e-014
lhumerus -48.8445 47.7311 55.6497
lradius 20.2477
lwrist -39.3181
lhand -10.7056 -7.19141
lfingers 7.12502
lthumb 15.3041 22.2223
rfemur 0.222979 14.5039 21.8716
rtibia 23.1894
rfoot -16.7846 -15.1693
rtoes -13.3656
lfemur -4.47991 -6.22685 -15.2825
ltibia 40.4881
lfoot -21.8168 -1.86463
ltoes -10.598
6
root 1.79538 17.5003 17.2144 -729.877 8.26573 -1.01546
lowerback 9.9188 -3.00207 2.70468
upperback 2.18836 -3.77492 -1.75003
thorax -3.5667 -1.90436 -2.8477
lowerneck -0.0970837 1.38769 -0.173802
upperneck 7.34156 2.13671 -4.21185
head 2.38224 0.950311 -1.26556
rclavicle 4.78326e-016 -1.59028e-014
rhumerus -46.2806 15.085 -97.8371
rradius 64.3613
rwrist 8.81766
rhand -28.1951 25.0082
rfingers 7.12502
rthumb -1.57437 -4.96572
lclavicle 4.78326e-016 -1.59028e-014
lhumerus -51.2166 49.6212 52.5718
lradius 19.4625
lwrist -42.0702
lhand -10.5132 -7.10138
lfingers 7.12502
lthumb 15.4894 22.2981
rfemur 0.535859 14.8532 21.9983
rtibia 22.9376
rfoot -17.0034 -15.6143
rtoes -13.3073
lfemur -4.55973 -6.57447 -15.3936
ltibia 39.6925
lfoot -21.5416 -1.67916
ltoes -10.2416
7
root 1.79798 17.5061 17.2592 -729.821 8.37972 -1.00039
lowerback 9.82856 -2.99309 2.75572
upperback 2.15193 -3.76088 -1.76906
thorax -3.55823 -1.8985 -2.90134
lowerneck 0.0709226 1.34482 -0.107643
upperneck 7.20956 2.0682 -4.182
head 2.30704 0.922842 -1.26873
rclavicle 4.27573e-014 1.07344e-014
rhumerus -46.4954 15.7654 -97.8241
rradius 66.718
rwrist 8.69762
rhand -28.5755 25.5608
rfingers 7.12502
rthumb -1.94169 -4.41013
lclavicle 4.27573e-014 1.07344e-014
lhumerus -53.6026 51.1063 49.6256
lradius 18.8478
lwrist -44.4339
lhand -10.2461 -6.916
lfingers 7.12502
lthumb 15.7467 22.4634
rfemur 0.858664 15.1697 22.1206
rtibia 22.6918
rfoot -17.2348 -16.0348
rtoes -13.3452
lfemur -4.58917 -7.00481 -15.5326
ltibia 38.9296
lfoot -21.25 -1.37181
ltoes -9.91228
8
root 1.80385 17.5114 17.3035 -729.758 8.49441 -0.999211
lowerback 9.70539 -2.99117 2.82993
upperback 2.12517 -3.75445 -1.78031
thorax -3.52293 -1.89618 -2.96067
lowerneck 0.265685 1.30346 -0.0369672
upperneck 7.04871 2.00269 -4.18677
head 2.21856 0.896751 -1.2836
rclavicle -1.10512e-014 1.19271e-014
rhumerus -46.6051 16.4864 -97.7407
rradius 69.0593
rwrist 8.67913
rhand -28.9298 25.9699
rfingers 7.12502
rthumb -2.28391 -3.99761
lclavicle -1.10512e-014 1.19271e-014
lhumerus -56.1047 52.4629 46.5628
lradius 18.2545
lwrist -46.6384
lhand -10.0107 -6.76663
lfingers 7.12502
lthumb 15.9734 22.5948
rfemur 1.16677 15.4785 22.2436
rtibia 22.4582
rfoot -17.465 -16.447
rtoes -13.3367
lfemur -4.59712 -7.45543 -15.6687
ltibia 38.2239
lfoot -21.0326 -1.02237
ltoes -9.74953
